<?xml version="1.0" standalone="no"?>
<!DOCTYPE svg PUBLIC "-//W3C//DTD SVG 1.1//EN" "http://www.w3.org/Graphics/SVG/1.1/DTD/svg11.dtd" >
<!--
2013-9-30: Created.
-->
<svg>
<metadata>
Created by iconfont
</metadata>
<defs>

<font id="iconfont" horiz-adv-x="1024" >
  <font-face
    font-family="iconfont"
    font-weight="500"
    font-stretch="normal"
    units-per-em="1024"
    ascent="896"
    descent="-128"
  />
    <missing-glyph />
    
    <glyph glyph-name="user1" unicode="&#58886;" d="M512 406.7555552A193.42222187 193.42222187 0 1 0 512 793.6a193.42222187 193.42222187 0 0 0 0-386.8444448zM102.4 19.911111470000037v22.7555552a318.57777813 318.57777813 0 0 0 318.57777813 318.57777813h182.04444374a318.57777813 318.57777813 0 0 0 318.57777813-318.57777813v-22.7555552a45.51111147 45.51111147 0 0 0-45.51111147-45.51111147H147.91111147a45.51111147 45.51111147 0 0 0-45.51111147 45.51111147z"  horiz-adv-x="1024" />

    
    <glyph glyph-name="mima" unicode="&#58934;" d="M832 512h-32V672c0 52.944-39.872 96-88.896 96H312.896C263.872 768 224 724.944 224 672v-160h-32a64 64 0 0 1-64-64v-384a64 64 0 0 1 64-64h640a64 64 0 0 1 64 64V448a64 64 0 0 1-64 64zM288 672c0 17.344 11.392 32 24.896 32h398.224c13.472 0 24.88-14.656 24.88-32v-160H288V672z m273.328-480a32 32 0 1 0 0-64h-18.336v-16a32 32 0 1 0-64 0v118.432A95.952 95.952 0 0 0 513.328 416a96 96 0 0 0 29.664-187.28V192h18.336z"  horiz-adv-x="1024" />

    
    <glyph glyph-name="users1" unicode="&#58992;" d="M405.333333 413.866667c-106.666667 0-192 85.333333-192 192s85.333333 192 192 192 192-85.333333 192-192-85.333333-192-192-192z m0 298.666666c-59.733333 0-106.666667-46.933333-106.666666-106.666666s46.933333-106.666667 106.666666-106.666667 106.666667 46.933333 106.666667 106.666667-46.933333 106.666667-106.666667 106.666666zM682.666667 21.333333c-23.466667 0-42.666667 19.2-42.666667 42.666667v74.666667c0 64-53.333333 117.333333-117.333333 117.333333h-234.666667c-64 0-117.333333-53.333333-117.333333-117.333333V64c0-23.466667-19.2-42.666667-42.666667-42.666667s-42.666667 19.2-42.666667 42.666667v74.666667c0 110.933333 91.733333 202.666667 202.666667 202.666666h234.666667c110.933333 0 202.666667-91.733333 202.666666-202.666666V64c0-23.466667-19.2-42.666667-42.666666-42.666667zM661.333333 413.866667c-23.466667 0-42.666667 19.2-42.666666 42.666666s19.2 42.666667 42.666666 42.666667c59.733333 0 106.666667 46.933333 106.666667 106.666667s-46.933333 106.666667-106.666667 106.666666c-23.466667 0-42.666667 19.2-42.666666 42.666667s19.2 42.666667 42.666666 42.666667c106.666667 0 192-85.333333 192-192s-85.333333-192-192-192zM938.666667 21.333333c-23.466667 0-42.666667 19.2-42.666667 42.666667v74.666667c0 64-53.333333 117.333333-117.333333 117.333333-23.466667 0-42.666667 19.2-42.666667 42.666667s19.2 42.666667 42.666667 42.666666c110.933333 0 202.666667-91.733333 202.666666-202.666666V64c0-23.466667-19.2-42.666667-42.666666-42.666667z"  horiz-adv-x="1024" />

    
    <glyph glyph-name="home2" unicode="&#58924;" d="M1012.772284 438.594409L534.61302 822.612573a31.958876 31.958876 0 0 1-9.147334 6.402827 31.847336 31.847336 0 0 1-8.875134 2.63399 32.235169 32.235169 0 0 1-6.124488 0.292665 31.865755 31.865755 0 0 1-21.079084-9.330506L9.862625 438.848189c-12.489452-12.489452-12.489452-32.737612 0-45.227064 12.489452-12.489452 32.737612-12.489452 45.227064 0l72.853262 58.303894v-483.414965c0-17.662265 14.3181-31.980365 31.980365-31.980365H415.765215c8.831132 0 16.826224 3.579525 22.613021 9.367345a32.116465 32.116465 0 0 1 5.507434 7.369851 31.833009 31.833009 0 0 1 3.85991 15.244192V320.039269h127.921462v-351.528192a31.836079 31.836079 0 0 1 4.63046-16.5837c5.608741-9.231245 15.759939-15.397688 27.349905-15.397688H863.49033c17.662265 0 31.980365 14.3181 31.980365 31.980365V451.251683l72.075549-57.885361c12.489452-12.489452 32.737612-12.489452 45.227064 0s12.488429 32.738635-0.001024 45.228087zM831.508941 0.490419H639.627772V352.019635c0 17.662265-14.3181 31.980365-31.980365 31.980365H415.765215c-17.662265 0-31.980365-14.3181-31.980365-31.980365v-351.529216H191.902658V503.113865l320.057433 256.141728 319.54885-256.635985v-502.129189z"  horiz-adv-x="1024" />

    
    <glyph glyph-name="user2" unicode="&#59158;" d="M512 384c52.8 0 96 43.2 96 96s-43.2 96-96 96c-52.768 0-96-43.2-96-96s43.232-96 96-96z m0 256a160.032 160.032 0 0 0 0-320c-88.32 0-160 71.68-160 160s71.68 160 160 160z m285.792-558.08A414.432 414.432 0 0 1 928 384c0 229.44-186.56 416-416 416S96 613.44 96 384c0-118.72 49.952-226.24 130.272-302.08 4.8 39.04 19.84 72 44.8 98.56C318.432 231.36 397.12 256 512 256c114.912 0 193.632-24.64 240.992-75.52 24.96-26.56 40-59.52 44.8-98.56z m-62.4-48.64v0.96c3.168 44.48-6.4 78.08-29.12 102.72C672 173.44000000000005 606.72 192 512 192c-94.72 0-160-18.56-194.208-55.04-22.72-24.64-32.352-58.24-29.12-102.72v-0.96A414.016 414.016 0 0 1 512-32c81.952 0 158.72 24 223.392 65.28zM512 864c264.672 0 480-215.36 480-480s-215.328-480-480-480C247.392-96 32 119.36000000000001 32 384S247.392 864 512 864z"  horiz-adv-x="1024" />

    
    <glyph glyph-name="book" unicode="&#59916;" d="M944.21046406 607.9542853q21.39428532-30.51428532 9.66857157-69.12l-147.29142844-485.34857155q-10.14857155-34.28571468-41.00571469-57.6t-65.62285687-23.31428532l-494.46857157 0q-41.28 0-79.54285687 28.66285687t-53.28 70.42285688q-12.82285687 35.86285689-1.09714313 68.02285687 0 2.12571468 1.57714313 14.46857158t2.12571469 19.81714312q0.54857155 4.25142845-1.57714313 11.52t-1.57714312 10.42285688q1.09714313 5.89714313 4.25142843 11.24571467t8.84571469 12.61714313 8.84571469 12.61714312q12.34285687 20.36571468 24.13714311 49.02857158t16.0457147 49.02857155q1.57714311 5.34857157 0.2742853 16.0457147t-0.2742853 15.01714312q1.57714311 5.89714313 9.12 15.01714313t9.12 12.34285687q11.24571468 19.26857155 22.49142844 49.30285688t13.37142844 48.20571467q0.54857155 4.8-1.37142844 17.14285688t0.27428531 15.01714312q2.12571468 6.99428532 11.79428531 16.32t11.79428532 12.06857158q10.14857155 13.92 22.76571468 45.25714312t14.74285688 51.70285688q0.54857155 4.25142845-1.57714313 13.64571467t-1.09714312 14.19428533q1.09714313 4.25142845 4.8 9.66857155t9.66857156 12.34285687 9.12 11.2457147q4.25142845 6.4457147 8.84571469 16.32t8.02285687 18.72 8.57142844 19.26857155 10.42285688 17.14285688 14.19428531 12.61714312 19.26857156 6.17142845 25.44-2.94857157l-0.54857156-1.57714313q20.36571468 4.8 27.29142844 4.8l407.65714312 0q39.63428532 0 61.09714313-30.0342853t9.66857156-69.66857157l-146.81142844-485.34857155q-19.26857155-63.77142843-38.33142844-82.21714313t-68.84571468-18.51428532l-465.53142844 0q-14.46857157 0-20.36571469-8.02285688-5.89714313-8.57142843-0.54857156-23.04 12.82285687-37.50857155 77.14285687-37.50857155l494.46857155 0q15.5657147 0 30.03428533 8.29714312t18.72 22.21714313l160.73142843 528.7542853q3.77142845 11.7942853 2.67428532 30.51428533 20.36571468-8.02285689 31.61142844-23.04zM374.17617875 606.8571431299999q-2.12571468-6.99428532 1.09714312-12.06857158t10.69714313-5.0742853l325.71428531 0q6.99428532 0 13.64571469 5.07428532t8.84571469 12.06857156l11.24571468 34.28571467q2.12571468 6.99428532-1.09714312 12.06857158t-10.69714313 5.0742853l-325.71428531 0q-6.99428532 0-13.64571469-5.0742853t-8.84571468-12.06857158zM329.7418925 469.7142853q-2.12571468-6.99428532 1.09714312-12.06857155t10.69714313-5.07428532l325.71428531 0q6.99428532 0 13.64571469 5.07428532t8.84571469 12.06857155l11.24571468 34.2857147q2.12571468 6.99428532-1.09714312 12.06857155t-10.69714313 5.07428534l-325.71428532 0q-6.99428532 0-13.64571468-5.07428534t-8.84571468-12.06857155z"  horiz-adv-x="1024" />

    
    <glyph glyph-name="liulanqi" unicode="&#59023;" d="M512 834C263.87 834 62 632.13 62 384s201.87-450 450-450 450 201.87 450 450S760.13 834 512 834zM122.00000029 384c0 94.05 33.46499971 180.43499971 89.11499942 247.86 5.83499971-6.525 10.62-15.13500029 12.825-26.595 4.69500029-24.54000029-12.48000029-105.12 9.37500029-122.82000029 33.36000029-27.01500029 84.98999971-4.30499971 111.57000029-20.62499942 26.88000029-16.49999971 93.915-93.465 120.08999971-77.82000029 43.98000029 26.26499971-31.42500029 130.05-34.66500029 158.11499971-4.79999971 41.59500029 21.44999971 90.34499971 69.33000058 72.63 30.06-11.115 36.315-51.18000029 64.395-52.83 28.06499971-1.64999971 14.95500029 86.50500029 14.85 100.71-0.29999971 39.78 38.89500029 68.06999971 80.60999942 82.33500058C801.60499971 686.67 901.99999971 546.88499971 901.99999971 384c0-65.32499971-16.22999971-126.91500029-44.74499942-181.06499971-3.26999971 34.92-11.76000029 73.78499971-33.01500058 85.69499942-41.265 23.10000029-87.19499971 1.00500029-120.51 37.96500058-13.77 15.27000029 3.555 83.52-37.91999971 99.91499942-80.62499971 31.87500029-145.95000029-33.885-165.76499971-86.715-8.28-22.095-11.16-49.11000029-7.23000058-75.465 0.81-84.69-43.00499971-84.735-26.38499942-118.71 18.20999971-37.19999971 83.31000029-24.00000029 70.63499971-101.88a51.90000029 51.90000029 0 0 0-15.81000029-29.97 489.75000029 489.75000029 0 0 0-23.09999942-14.4 109.10999971 109.10999971 0 0 0-13.39500058-4.30499971C282.39499971 9.08999971000003 122.00000029 178.10999971 122.00000029 384z"  horiz-adv-x="1024" />

    
    <glyph glyph-name="yonghu" unicode="&#58883;" d="M990.070625 373.5553125v-239.0015625h-54.5446875c-8.32875 22.2553125-17.9540625 40.8234375-29.4234375 55.70625-41.8471875 55.09125-114.21 69.8371875-177.7659375 83.2171875-25.395 5.188125-49.4934375 10.2403125-68.5396875 17.203125-8.191875 2.9353125-13.925625 5.870625-17.885625 7.9865625 20.07 21.9815625 37.3415625 48.879375 49.970625 79.258125 15.838125 37.2046875 24.0984375 77.686875 24.0984375 117.14625 0 60.279375-3.823125 129.2971875-31.4034375 184.66125-12.2203125 24.1659375-31.606875 51.1996875-62.39625 70.655625 14.6765625 52.9753125 48.2653125 88.2009375 119.535 88.2009375 112.025625 0 129.22875-90.658125 129.22875-199.9528125 0-57.275625-25.531875-115.9846875-63.283125-149.3671875-3.7546875-3.4134375-5.870625-8.2603125-5.870625-13.1746875-0.136875-13.5853125 0.2728125-31.4034375 5.4609375-38.0934375 31.67625-42.256875 117.7603125-43.554375 182.818125-64.44375M115.5753125 188.55281249999996c40.755 58.095 115.23375 72.909375 180.838125 86.2209375 25.7371875 5.0521875 49.8346875 10.1034375 69.0178125 16.794375 7.9190625 2.799375 13.516875 5.325 17.4084375 7.5778125-20.07 21.9815625-36.7265625 48.605625-49.6303125 78.4378125-15.6328125 37.00125-24.1659375 76.7315625-24.7134375 115.370625-0.6140625 51.1321875 2.5940625 90.0440625 9.215625 123.0853125 9.69375 47.514375 27.4434375 83.6953125 54.40875 110.9334375 8.9428125 9.2840625 18.9778125 17.0671875 29.6278125 23.7571875-15.01875 53.248125-47.923125 88.47375-117.7603125 88.47375-115.4390625 0-131.6859375-91.681875-130.59375-201.7959375 0.6140625-56.115 26.0784375-114.55125 63.42-147.796875 3.823125-3.345 5.9390625-8.2603125 5.9390625-13.449375 0-13.5853125-0.886875-31.265625-5.66625-37.546875-30.9253125-42.189375-117.691875-43.1446875-183.159375-63.350625v-240.435h54.6815625c7.64625 21.2990625 16.725 38.911875 26.9653125 53.72625M907.3315625-49.83468749999997c0.545625-11.6053125-8.7384375-21.2990625-20.206875-21.2990625h-749.4309375c-11.6053125 0-20.7534375 9.7621875-20.139375 21.2990625 2.6615625 45.8746875 12.35625 153.3271875 46.966875 202.8196875 52.5646875 74.82 226.09875 49.08375 274.7053125 115.9846875 5.5303125 7.305 6.4171875 27.03375 6.4171875 42.256875 0 5.73375-2.38875 11.195625-6.6215625 15.1546875-41.71125 37.2740625-69.8371875 102.5371875-70.45125 165.6834375-1.2290625 123.5634375 16.794375 226.1671875 144.8615625 226.1671875 124.1765625 0 143.086875-101.5134375 143.086875-224.3934375 0-64.306875-28.261875-129.9796875-69.973125-167.458125-4.0284375-3.68625-6.6215625-9.3534375-6.69-14.6765625-0.34125-15.1546875 0.6140625-35.2940625 5.870625-42.8034375 49.2196875-66.9009375 217.565625-42.9403125 273.3403125-115.9846875 36.38625-48.40125 45.8071875-156.8090625 48.2653125-202.7521875z"  horiz-adv-x="1024" />

    
    <glyph glyph-name="file" unicode="&#58927;" d="M896.211 559.851l0-576.316c0-26.515-21.512-48.026-48.026-48.026L175.815-64.49099999999999c-26.515 0-48.026 21.512-48.026 48.026L127.789 783.974c0 26.515 21.512 48.026 48.026 48.026l448.246 0c26.515 0 63.535-15.509 82.045-34.019l156.086-156.086C880.702 623.386 896.211 586.365 896.211 559.851zM832.176 511.824L624.062 511.824c-26.515 0-48.026 21.512-48.026 48.026L576.036 767.965 191.824 767.965l0-768.422 640.352 0L832.176 511.824zM640.07 575.8589999999999l188.104 0c-3.002 8.505-7.505 17.009-11.006 20.511L660.581 752.957c-3.501 3.502-12.006 8.004-20.511 11.006L640.07 575.8589999999999z"  horiz-adv-x="1024" />

    
    <glyph glyph-name="pdf" unicode="&#59041;" d="M895.969 559.985l0-575.953c0-26.497-21.498-47.995-47.998-47.995L176.028-63.962999999999965c-26.498 0-47.996 21.498-47.996 47.995L128.032 783.967c0 26.498 21.499 47.996 47.996 47.996L623.99 831.963c26.498 0 63.494-15.499 81.994-33.997l155.986-155.987C880.469 623.48 895.969 586.483 895.969 559.985zM831.973 511.989L623.99 511.989c-26.498 0-47.996 21.499-47.996 47.996L575.994 767.968 192.026 767.968l0-767.936 639.946 0L831.972 511.989zM639.99 575.9839999999999l187.984 0c-3 8.5-7.5 16.999-11 20.499L660.488 752.97c-3.5 3.5-12 7.999-20.498 10.999L639.99 575.9839999999999zM796.394 315.889c-13.039 15.483-39.777 23.011-81.741 23.011-24.393 0-53.857-2.575-87.626-7.658-92.235 67.438-117.988 141.834-117.988 141.834s15.753 40.104 16.753 105.604c0.632 41.405-5.78 69.335-22.346 85.562-6.439 6.308-17.241 10.383-27.519 10.383-8.021 0-15.532-2.356-21.687-6.86-47.949-35.085 4.401-200.485 5.802-204.892-22.627-55.688-51.132-114.686-80.47-166.526-9.532-16.844-8.603-15.526-16.64-29.223 0 0-81.141-38.112-120.498-84.923-22.238-26.449-25.049-44.306-23.868-57.914l0.03-0.297c1.874-16.023 22.387-30.616 43.039-30.616 0.856 0 1.719 0.026 2.563 0.078 20.989 1.295 43.989 16.209 70.314 45.594 17.376 19.398 39.958 53.526 67.147 101.475 78.009 22.19 146.661 37.995 204.195 47.01 42.19-22.706 104.963-48.419 147.693-48.419 14.334 0 25.864 2.922 34.271 8.685 10.059 6.893 14.33 15.481 16.985 31.383S803.762 307.14099999999996 796.394 315.889zM705.261 296.52700000000004c37.504 0 57.811-5.453 68.241-10.027 3.218-1.411 5.558-2.771 7.218-3.909-2.939-1.879-8.721-4.25-19.171-4.25-17.327 0-40.069 6.051-67.808 18.022C697.687 296.47299999999996 701.528 296.52700000000004 705.261 296.52700000000004zM482.992 641.429c0.026 0.049 0.055 0.101 0.088 0.154 8.045-4.236 11.799-33.986 11.045-51.236-1.012-23.149-1.252-32.094-5.316-46.316C477.791 573.6800000000001 477.01 626.976 482.992 641.429zM485.935 406.75c18.918-30.724 46.975-63.999 74.007-87.758-52.76-11.15-103.416-25.127-134.937-36.006C458.791 340.67999999999995 483.716 401.031 485.935 406.75zM268.785 141.82399999999996c4.578 7.625 17.084 22.398 48.8 50.966-21.74-32.696-37.708-50.501-53.91-61.605C265.017 134.68600000000004 266.705 138.35799999999995 268.785 141.82399999999996z"  horiz-adv-x="1024" />

    
    <glyph glyph-name="word" unicode="&#59044;" d="M895.969 559.985l0-575.953c0-26.497-21.498-47.995-47.998-47.995L176.028-63.962999999999965c-26.498 0-47.996 21.498-47.996 47.995L128.032 783.967c0 26.498 21.499 47.996 47.996 47.996L623.99 831.963c26.498 0 63.494-15.499 81.994-33.997l155.986-155.987C880.469 623.48 895.969 586.483 895.969 559.985zM831.973 511.989L623.99 511.989c-26.498 0-47.996 21.499-47.996 47.996L575.994 767.968 192.026 767.968l0-767.936 639.946 0L831.972 511.989zM639.99 575.9839999999999l187.984 0c-3 8.5-7.5 16.999-11 20.499L660.488 752.97c-3.5 3.5-12 7.999-20.498 10.999L639.99 575.9839999999999zM783.309 456.574L612.254 96l-102.52 0-18.691 214.441-1.133 0L390.223 96 286.287 96l-45.596 360.574 103.652 0 11.045-227.695 1.133 0 103.936 227.695 104.219 0 16.992-224.977 1.133 0 82.412 224.977L783.309 456.574z"  horiz-adv-x="1024" />

    
    <glyph glyph-name="excel" unicode="&#59045;" d="M895.969 559.985l0-575.953c0-26.497-21.498-47.995-47.998-47.995L176.028-63.963c-26.498 0-47.996 21.498-47.996 47.995L128.032 783.967c0 26.498 21.499 47.996 47.996 47.996L623.99 831.963c26.498 0 63.494-15.499 81.994-33.997l155.986-155.987C880.469 623.48 895.969 586.483 895.969 559.985zM831.973 511.989 623.99 511.989c-26.498 0-47.996 21.499-47.996 47.996L575.994 767.968 192.026 767.968l0-767.936 639.946 0L831.972 511.989zM639.99 575.984l187.984 0c-3 8.5-7.5 16.999-11 20.499L660.488 752.97c-3.5 3.5-12 7.999-20.498 10.999L639.99 575.984zM569.09 96l-56.717 88.062L455.656 96 319.833 96l125.375 192.54L319.833 480.333 454.91 480.333l57.463-88.061 56.717 88.061 135.076 0L580.285 288.54 704.166 96 569.09 96z"  horiz-adv-x="1024" />

    
    <glyph glyph-name="ppt" unicode="&#59047;" d="M895.969 559.985l0-575.953c0-26.497-21.498-47.995-47.998-47.995L176.028-63.962999999999965c-26.498 0-47.996 21.498-47.996 47.995L128.032 783.967c0 26.498 21.499 47.996 47.996 47.996L623.99 831.963c26.498 0 63.494-15.499 81.994-33.997l155.986-155.987C880.469 623.48 895.969 586.483 895.969 559.985zM831.973 511.989L623.99 511.989c-26.498 0-47.996 21.499-47.996 47.996L575.994 767.968 192.026 767.968l0-767.936 639.946 0L831.972 511.989zM639.99 575.9839999999999l187.984 0c-3 8.5-7.5 16.999-11 20.499L660.488 752.97c-3.5 3.5-12 7.999-20.498 10.999L639.99 575.9839999999999zM458.56 64l-92.027 0L366.533 534.145l116.89 0c29.708 0 53.118-1.615 70.231-4.843 17.114-3.229 30.944-8.396 41.493-15.5 19.374-13.133 34.601-30.464 45.69-51.987 11.085-21.529 16.629-44.561 16.629-69.102 0-44.994-14.854-80.942-44.56-107.849-29.708-26.912-69.747-40.362-120.12-40.362L458.56 244.50199999999995 458.56 64zM458.56 323.93600000000004l24.217 0c25.616 0 45.257 5.54 58.93 16.63 13.668 11.085 20.505 26.962 20.505 47.628 0 21.312-6.62 37.184-19.859 47.628-13.237 10.439-33.313 15.661-60.221 15.661L458.56 451.483 458.56 323.93600000000004z"  horiz-adv-x="1024" />

    
    <glyph glyph-name="zip" unicode="&#59048;" d="M895.969 559.985l0-575.953c0-26.497-21.498-47.995-47.998-47.995L176.028-63.963c-26.498 0-47.996 21.498-47.996 47.995L128.032 783.967c0 26.498 21.499 47.996 47.996 47.996L623.99 831.963c26.498 0 63.494-15.499 81.994-33.997l155.986-155.987C880.469 623.48 895.969 586.483 895.969 559.985zM831.973 511.989 623.99 511.989c-26.498 0-47.996 21.499-47.996 47.996L575.994 767.968 192.026 767.968l0-767.936 639.946 0L831.972 511.989zM639.99 575.984l187.984 0c-3 8.5-7.5 16.999-11 20.499L660.488 752.97c-3.5 3.5-12 7.999-20.498 10.999L639.99 575.984zM438.647 96 238.732 96l0 55.179 125.904 204.513L247.709 355.692l0 59.121 187.872 0 0-51.019L307.268 155.12l131.379 0L438.647 96zM472.368 96 472.368 414.812l62.404 0L534.772 96 472.368 96zM650.386 96 587.98 96 587.98 414.812l79.265 0c20.145 0 36.021-1.095 47.624-3.285 11.605-2.19 20.984-5.693 28.138-10.51 13.138-8.906 23.463-20.658 30.983-35.253 7.517-14.599 11.277-30.217 11.277-46.858 0-30.511-10.072-54.888-30.218-73.134-20.145-18.249-47.296-27.371-81.454-27.371l-23.21 0L650.385 96zM650.386 272.266l16.422 0c17.369 0 30.689 3.757 39.961 11.277 9.269 7.516 13.904 18.283 13.904 32.297 0 14.452-4.489 25.215-13.467 32.297-8.978 7.079-22.591 10.62-40.837 10.62l-15.983 0L650.386 272.266z"  horiz-adv-x="1024" />

    
    <glyph glyph-name="loadingout" unicode="&#58919;" d="M512 779.508l0 0c14.831 0 24.719-9.888 24.719-24.719l0-103.821c0-14.831-9.888-24.719-24.719-24.719l0 0c-14.831 0-24.719 9.888-24.719 24.719l0 103.821c0 14.831 9.888 24.719 24.719 24.719l0 0 0 0zM512 141.753l0 0c14.831 0 24.719-9.888 24.719-24.719l0-103.821c0-14.831-9.888-24.719-24.719-24.719l0 0c-14.831 0-24.719 9.888-24.719 24.719l0 103.821c0 14.831 9.888 24.719 24.719 24.719l0 0 0 0zM907.508 384l0 0c0-14.831-9.888-24.719-24.719-24.719l-103.821 0c-14.831 0-24.719 9.888-24.719 24.719l0 0c0 14.831 9.888 24.719 24.719 24.719l103.821 0c14.831 0 24.719-9.888 24.719-24.719l0 0 0 0zM269.753 384l0 0c0-14.831-9.888-24.719-24.719-24.719l-103.821 0c-14.831 0-24.719 9.888-24.719 24.719l0 0c0 14.831 9.888 24.719 24.719 24.719l103.821 0c14.831 0 24.719-9.888 24.719-24.719l0 0 0 0zM853.125 581.754l0 0c4.943-9.888 4.943-24.719-9.888-34.607l-88.989-54.384c-9.888-4.943-24.719-4.943-34.607 9.888l0 0c-4.943 9.888-4.943 24.719 9.888 34.607l88.989 54.382c14.831 4.943 29.663 4.943 34.607-9.888l0 0 0 0zM304.359 265.347l0 0c4.943-9.888 4.943-24.719-9.888-34.607l-88.989-54.382c-9.888-4.943-24.719-4.943-34.607 9.888l0 0c-4.943 9.888-4.943 24.719 9.888 34.607l88.989 54.384c9.888 4.943 24.719 0 34.607-9.888l0 0 0 0zM709.754 725.125l0 0c9.888-4.943 14.831-19.776 9.888-34.607l-54.382-88.989c-4.943-9.888-19.776-14.831-34.607-9.888l0 0c-9.888 4.943-14.831 19.776-9.888 34.607l54.384 88.989c9.888 14.831 24.719 19.776 34.607 9.888l0 0 0 0zM393.347 176.359l0 0c9.888-4.943 14.831-19.776 9.888-34.607l-54.382-88.989c-9.888-14.831-24.719-14.831-34.607-9.888l0 0c-9.888 4.943-14.831 19.776-9.888 34.607l54.382 88.989c4.943 14.831 19.776 14.831 34.607 9.888l0 0 0 0zM314.246 725.125l0 0c9.888 9.888 24.719 4.943 34.607-4.943l54.384-88.989c4.943-9.888 4.943-24.719-9.888-34.607l0 0c-14.831-9.888-29.663-4.943-34.607 4.943l-54.382 93.933c-4.943 9.888 0 24.719 9.888 29.663l0 0 0 0zM630.653 176.359l0 0c9.888 4.943 24.719 4.943 34.607-9.888l54.382-88.989c4.943-9.888 4.943-24.719-9.888-34.607l0 0c-9.888-4.943-24.719-4.943-34.607 9.888l-54.384 88.989c-4.943 14.831 0 29.663 9.888 34.607l0 0 0 0zM170.875 581.754l0 0c4.943 9.888 19.776 14.831 34.607 9.888l88.989-54.382c9.888-4.943 14.831-19.776 9.888-29.663l0 0c-9.888-14.831-24.719-19.776-34.607-9.888l-88.989 49.438c-14.831 9.888-19.776 24.719-9.888 34.607l0 0 0 0zM719.641 265.347l0 0c4.943 9.888 19.776 14.831 34.607 9.888l88.989-54.382c9.888-4.943 14.831-19.776 9.888-34.607l0 0c-4.943-9.888-19.776-14.831-34.607-9.888l-88.989 54.382c-9.888 4.943-14.831 19.776-9.888 34.607l0 0 0 0zM719.641 265.347z"  horiz-adv-x="1024" />

    
    <glyph glyph-name="checkcircle" unicode="&#58904;" d="M512 803.754c-231.87 0-419.802-187.932-419.802-419.802s187.932-419.802 419.802-419.802c231.87 0 419.802 187.932 419.802 419.802s-187.932 419.802-419.802 419.802zM775.528 502.717l-296.433-296.433c-8.634-8.634-24.271-12.567-37.222-11.992-13.047-0.576-28.876 3.357-37.509 11.992l-130.085 130.181c-16.212 16.212-16.212 42.594 0 58.903 16.212 16.212 42.594 16.212 58.903 0l108.596-108.692 274.943 274.943c16.212 16.212 42.594 16.212 58.903 0 16.212-16.309 16.212-42.69-0.096-58.903z"  horiz-adv-x="1024" />

    
    <glyph glyph-name="closecircle" unicode="&#58906;" d="M510.519 805.348c-231.878 0-419.934-188.029-419.934-419.935 0-231.922 188.028-419.935 419.934-419.935 231.938 0 419.935 187.969 419.935 419.935 0 231.878-187.997 419.935-419.935 419.935l0 0zM682.67 268.874c7.176-7.12 11.571-16.93 11.571-27.814 0-21.765-17.606-39.369-39.368-39.369-10.809 0-20.711 4.394-27.801 11.558l-116.554 116.48-116.466-116.523c-7.148-7.148-16.988-11.543-27.884-11.543-21.706 0-39.34 17.59-39.34 39.368 0 10.884 4.395 20.679 11.512 27.784l116.526 116.599-116.498 116.497c-7.117 7.146-11.512 16.988-11.512 27.857 0 21.734 17.633 39.368 39.368 39.368 10.84 0 20.68-4.395 27.829-11.513l116.466-116.526 116.526 116.495c7.118 7.119 17.019 11.514 27.829 11.514 21.703 0 39.368-17.605 39.368-39.37 0-10.882-4.421-20.724-11.571-27.841l-116.466-116.466 116.466-116.554zM682.67 268.874z"  horiz-adv-x="1024" />

    
    <glyph glyph-name="info" unicode="&#58915;" d="M512.001-32.997c230.524 0 418.076 187.552 418.075 418.077 0 230.527-187.552 418.077-418.075 418.077s-418.077-187.55-418.077-418.077c0-230.525 187.552-418.077 418.077-418.077zM512 594.12c28.86 0 52.26-23.399 52.26-52.263 0-28.858-23.399-52.257-52.26-52.257s-52.26 23.399-52.26 52.257c0 28.863 23.399 52.263 52.26 52.263zM459.74 385.078c0 28.86 23.399 52.26 52.26 52.26s52.26-23.399 52.26-52.26l0-156.775c0-28.86-23.399-52.26-52.26-52.26s-52.26 23.399-52.26 52.26l0 156.775z"  horiz-adv-x="1024" />

    
    <glyph glyph-name="warning" unicode="&#58939;" d="M511.999 800.997c-230.524 0-418.076-187.552-418.075-418.077 0-230.527 187.552-418.077 418.075-418.077s418.077 187.55 418.077 418.077c0 230.525-187.552 418.077-418.077 418.077zM512 173.88c-28.86 0-52.26 23.399-52.26 52.263 0 28.858 23.399 52.257 52.26 52.257s52.26-23.399 52.26-52.257c0-28.863-23.399-52.263-52.26-52.263zM564.26 382.922c0-28.86-23.399-52.26-52.26-52.26s-52.26 23.399-52.26 52.26l0 156.775c0 28.86 23.399 52.26 52.26 52.26s52.26-23.399 52.26-52.26l0-156.775z"  horiz-adv-x="1024" />

    
    <glyph glyph-name="phone" unicode="&#58887;" d="M691.2 307.2C640 256 640 204.8 588.8 204.8s-102.4 51.2-153.6 102.4-102.4 102.4-102.4 153.6 51.2 51.2 102.4 102.4S332.8 768 281.6 768 128 614.4 128 614.4c0-102.4 105.216-310.016 204.8-409.6S640 0 742.4 0c0 0 153.6 102.4 153.6 153.6C896 204.8 742.4 358.4 691.2 307.2zM-664.554667 646.592M-664.554667 646.592"  horiz-adv-x="1024" />

    
    <glyph glyph-name="home" unicode="&#58898;" d="M-664.554667 646.592M-664.554667 646.592M829.781333-64l-211.861333 0c-12.074667 0-21.866667 9.770667-21.866667 21.866667L596.053333 253.781333l-168.128 0 0-295.936c0-12.074667-9.770667-21.866667-21.866667-21.866667L194.218667-64.021333c-55.168 0-74.816 38.656-74.816 74.816L119.402667 306.752 52.693333 306.752c-21.482667 0-35.285333 6.933333-41.088 20.629333-8.64 20.394667 7.317333 40.661333 22.208 56.064L459.050667 809.088C472.448 822.976 491.029333 831.210667 511.146667 832c21.866667-0.789333 40.469333-9.024 54.122667-23.210667L989.866667 383.722667c15.146667-15.68 31.168-35.968 22.549333-56.362667-5.802667-13.674667-19.648-20.629333-41.109333-20.629333l-66.688 0 0-295.936C904.618667-25.344 884.949333-64 829.781333-64z"  horiz-adv-x="1024" />

    
    <glyph glyph-name="zxnumber" unicode="&#58909;" d="M-664.554667 646.592M-664.554667 646.592M873.898667 810.666667 178.325333 810.666667C131.562667 810.666667 85.333333 787.221333 85.333333 740.437333l0-781.013333L265.770667 106.666667l608.149333 0C920.682667 106.666667 938.666667 172.992 938.666667 219.776L938.666667 740.437333C938.666667 787.221333 920.682667 810.666667 873.898667 810.666667zM338.368 421.546667c-31.893333 0-57.770667 25.856-57.770667 57.770667 0 31.893333 25.856 57.770667 57.770667 57.770667s57.770667-25.856 57.770667-57.770667C396.138667 447.402667 370.282667 421.546667 338.368 421.546667zM525.205333 421.546667c-31.893333 0-57.770667 25.856-57.770667 57.770667 0 31.893333 25.856 57.770667 57.770667 57.770667s57.770667-25.856 57.770667-57.770667C582.976 447.402667 557.098667 421.546667 525.205333 421.546667zM713.834667 421.546667c-31.893333 0-57.770667 25.856-57.770667 57.770667 0 31.893333 25.856 57.770667 57.770667 57.770667 31.893333 0 57.770667-25.856 57.770667-57.770667C771.605333 447.402667 745.728 421.546667 713.834667 421.546667z"  horiz-adv-x="1024" />

    
    <glyph glyph-name="about" unicode="&#59015;" d="M512 896C229.376 896 0 666.624 0 384s229.376-512 512-512 512 229.376 512 512S794.624 896 512 896z m62.464-774.144c0-27.648-22.528-50.176-50.176-50.176h-25.088c-27.648 0-50.176 22.528-50.176 50.176V421.376c0 27.648 22.528 50.176 50.176 50.176h25.088c27.648 0 50.176-22.528 50.176-50.176v-299.52zM512 546.304c-34.304 0-62.464 28.16-62.464 62.464 0 34.304 28.16 62.464 62.464 62.464s62.464-28.16 62.464-62.464c0-34.304-28.16-62.464-62.464-62.464z"  horiz-adv-x="1024" />

    


  </font>
</defs>
</svg>
